<?xml version="1.0" standalone="no"?>
<!DOCTYPE svg PUBLIC "-//W3C//DTD SVG 20010904//EN"
 "http://www.w3.org/TR/2001/REC-SVG-20010904/DTD/svg10.dtd">
<svg version="1.0" xmlns="http://www.w3.org/2000/svg"
 width="1244.000000pt" height="1280.000000pt" viewBox="0 0 1244.000000 1280.000000"
 preserveAspectRatio="xMidYMid meet">
<metadata>
Created by potrace 1.15, written by Peter Selinger 2001-2017
</metadata>
<g transform="translate(0.000000,1280.000000) scale(0.100000,-0.100000)"
fill="#000000" stroke="none">
<path d="M7764 11623 c3 -148 11 -438 17 -646 6 -208 8 -381 5 -385 -3 -3 -6
29 -6 70 l0 75 -42 -9 c-74 -16 -151 -29 -212 -36 l-60 -7 42 -28 c59 -38 53
-43 -8 -6 -28 17 -47 35 -43 41 3 7 1 8 -5 4 -6 -4 -270 166 -589 378 -317
212 -578 384 -580 382 -2 -2 1 -181 8 -397 10 -342 13 -396 28 -410 9 -9 454
-306 989 -660 2204 -1460 3237 -2149 3234 -2160 -1 -6 2 -8 7 -4 6 3 151 -86
323 -199 l312 -205 169 257 c93 141 171 262 173 267 2 6 -656 451 -1463 990
-806 539 -1536 1028 -1623 1087 l-157 107 -6 158 c-3 87 -15 464 -27 838 -11
374 -23 699 -26 723 l-5 42 -231 0 -231 0 7 -267z"/>
<path d="M5710 11184 c-234 -158 -1352 -913 -2485 -1678 -1133 -765 -2117
-1429 -2187 -1476 -70 -47 -126 -89 -124 -95 2 -5 80 -126 173 -267 l169 -257
469 307 c259 169 505 332 548 361 43 29 80 51 83 49 2 -3 -98 -71 -221 -153
-124 -81 -224 -149 -222 -151 11 -11 107 -13 156 -3 92 19 131 53 213 189 28
47 59 91 70 98 10 7 16 17 13 22 -3 4 631 428 1408 941 776 514 1629 1078
1895 1254 l484 320 -2 260 c-2 143 -5 329 -9 413 l-6 152 -425 -286z"/>
<path d="M10142 8079 c7 -13 16 -26 19 -29 3 -3 12 -15 18 -28 7 -13 20 -33
29 -44 82 -101 121 -124 230 -131 39 -3 76 -8 82 -12 5 -3 10 -4 10 -1 0 4
-348 238 -388 261 -11 6 -11 3 0 -16z"/>
<path d="M2380 7904 c-135 -103 -266 -203 -292 -222 l-48 -36 0 -2893 0 -2893
285 0 284 0 3 202 c2 112 5 617 6 1123 1 506 5 1817 9 2913 3 1095 4 1992 2
1992 -2 0 -115 -84 -249 -186z"/>
<path d="M9813 5865 c4 -1226 7 -2629 7 -3117 l0 -888 290 0 290 0 -1 2893 0
2892 -27 21 c-15 11 -142 108 -282 214 -140 106 -261 198 -269 204 -12 9 -13
-299 -8 -2219z"/>
<path d="M1720 1600 l0 -149 4413 1 c2426 1 4451 3 4500 5 l87 4 0 145 0 144
-4500 0 -4500 0 0 -150z"/>
<path d="M4510 1055 l0 -145 1710 0 1710 0 0 145 0 145 -1710 0 -1710 0 0
-145z"/>
</g>
</svg>
